<?xml version="1.0" standalone="no"?><!DOCTYPE svg PUBLIC "-//W3C//DTD SVG 20010904//EN"
 "http://www.w3.org/TR/2001/REC-SVG-20010904/DTD/svg10.dtd"><svg preserveAspectRatio="xMidYMid meet" version="1.0" viewBox="0 0 1375 1957" xmlns="http://www.w3.org/2000/svg"><g transform="matrix(.1 0 0 -.1 0 1957)"><path d="M4361 18849c-258-54-556-223-623-353-16-31-19-53-16-105 5-76 27-127 143-325 41-71 73-131 70-134s-74 22-157 56c-246 98-433 146-744 191-292 42-463 51-610 30-201-28-280-100-325-296-29-129-37-379-15-498 34-179 126-410 182-454 36-28 68-27 182 8 160 49 207 56 382 56 184-1 274-14 431-66 322-107 636-328 898-633 104-121 251-315 251-332 0-7-44-39-97-70-520-304-1059-797-1386-1265-242-348-436-773-537-1179-12-47-26-103-31-124-9-31-40-70-143-175-500-512-881-1088-1161-1752-245-581-345-1088-345-1747 0-380 31-709 100-1052 79-388 102-447 215-530l55-41v-127c1-200 16-365 50-522 109-517 315-989 613-1409 167-235 329-426 720-850 546-592 729-871 1472-2241 341-630 499-891 713-1175 400-532 804-898 1217-1100 300-147 627-220 1031-232 305-9 517 20 770 105 438 147 767 402 1150 893 483 618 874 1260 1214 1992 340 734 522 1266 609 1782 64 384 75 516 75 905 1 315-2 374-22 525-29 215-71 431-128 658-88 356-130 483-225 676l-61 125 53 45c179 151 292 286 377 450 174 331 253 775 191 1061-34 155-34 194-5 318 41 172 49 292 35 567-18 370-4 487 76 620 49 81 79 110 149 145 156 78 390 8 567-170 131-132 221-286 289-492 36-112 60-138 121-138 40 0 215 62 450 159 198 82 214 109 173 309-78 390-266 745-514 975-62 57-69 67-53 75 10 5 149 37 308 71 534 114 505 104 531 167 21 51 17 117-21 317-61 322-124 536-222 754-94 209-129 250-213 246-25-1-146-25-270-52-194-44-265-62-352-87-25-7-24 11 16 227 56 298 68 408 68 594-1 222-39 507-79 592-18 38-61 58-111 49-21-3-107-26-191-52-84-25-155-44-158-41s11 44 31 90c39 92 43 124 22 165s-252 262-291 278c-45 19-101 18-135-2-15-9-54-58-86-108-214-330-388-519-624-678-92-63-626-338-656-338-5 0-18 33-27 73-71 298-418 701-830 964-254 162-524 273-879 363-137 35-168 46-168 60 0 58 111 344 211 542 212 424 491 792 815 1079 113 100 134 129 134 181 0 131-274 448-544 629-87 58-115 55-246-25-306-188-619-518-858-905-195-313-353-645-522-1096-38-99-73-181-79-183-14-5-14 36-1 362 24 614 96 1052 326 1968 41 164 74 318 74 343 0 94-43 130-197 164-179 40-512 79-718 84-141 3-154-12-253-289-96-267-184-608-236-914-65-383-86-635-93-1163-3-235-7-426-9-425-1 2-82 298-179 658-290 1081-362 1314-552 1795-147 373-193 425-378 424-49 0-132-9-184-20m248-155c23-17 23-17-65-49-135-48-239-105-371-202-71-51-87-75-60-86 7-3 88 24 180 59 161 62 298 106 368 119 32 6 35 4 51-36 10-23 16-45 13-49-2-4-28-10-58-13-105-13-254-81-441-201-90-58-119-91-91-102 9-4 149 41 311 100 162 58 303 106 312 106 12 0 23-16 35-49 9-27 17-51 17-54 0-4-17-9-37-13-121-22-366-129-479-210-67-47-83-70-55-79 14-4 256 87 588 222 14 6 57-83 50-101-3-6-36-22-73-35-38-13-98-39-134-56-98-49-292-163-318-188-20-19-21-22-6-30 25-14 54-5 319 103 136 55 250 98 254 95 7-8 41-98 41-111 0-6-26-18-57-28-69-22-164-69-291-143-77-45-93-59-90-76 2-14 11-23 24-25 12-2 114 31 225 72 112 41 210 76 218 78 9 2 24-28 46-94l34-98-22-4c-12-3-51-7-87-10-102-9-212-68-321-173-48-46-110-117-137-156-71-102-186-296-200-334-10-31-10-33 13-33 18 0 53 35 151 148 222 257 288 318 426 391 82 44 178 77 200 68 8-3 25-40 38-84 12-43 25-83 27-89s-23-15-58-22c-187-35-346-165-602-495-77-99-93-137-59-137 26 0 56 24 256 205 97 88 212 185 254 215 91 65 218 134 235 127 11-4 57-129 57-154 0-6-15-13-32-16-121-20-256-106-398-253-111-115-239-264-259-301-10-19-6-53 6-53 20 0 95 55 254 186 195 160 290 228 400 288l67 37 36-108c40-118 40-117-33-128-60-9-133-39-190-77-54-38-350-283-368-306-20-25-16-52 7-52 30 0 53 13 357 206 151 97 279 172 283 167 9-8 196-557 280-818 26-82 57-202 69-265 44-235 67-310 91-295 6 4 10 78 10 175v169l33 5c17 3 129 10 247 16 204 11 280 22 280 40 0 4-17 16-37 26-34 17-64 19-281 19h-242v185l315-7c276-5 315-4 315 9 0 8-11 20-25 26-43 20-248 33-455 31l-195-3-3 62-3 62h289c323 0 385 5 380 28-4 20-93 47-228 68-104 16-331 16-372-1-16-6-18 1-18 79v86h28c45 0 227-28 399-61 90-17 170-29 178-25 47 18-28 66-180 115-142 47-201 57-357 66l-118 7v138h60c49 0 621-79 695-96 27-6 49 10 42 30-8 20-121 76-219 109-128 43-230 58-385 58h-143v215l73-8c39-5 203-31 362-58 160-28 304-52 322-55 17-3 34-2 37 3 11 18-41 51-135 86-228 84-407 121-558 113l-93-4 4 54c8 88-7 84 344 90 170 2 315 7 323 9 29 9-12 33-94 55-69 19-108 22-280 23-110 0-217-3-238-7l-38-8 7 68c4 37 9 71 13 74 9 10 265-8 458-32 202-25 239-18 143 25-128 58-348 100-494 95l-98-4 7 55c4 30 10 59 15 63 4 5 142-7 306-26 281-33 354-37 354-16 0 39-333 125-527 136l-113 6v33q0 84 48 84c16 0 154-18 307-40 284-41 345-46 345-32 0 22-44 43-155 75-171 50-260 68-394 81l-118 11 11 45c10 42 14 45 46 48 19 2 165-13 323-33 336-41 370-43 365-17-2 12-37 28-128 59-167 55-269 75-425 82-115 5-130 8-133 24-7 33 8 67 31 72 12 3 169-12 349-35 369-45 348-43 348-30 0 22-71 51-209 84-168 41-238 52-374 62-54 4-99 10-101 13s1 21 6 39c8 32 9 32 71 33 204 3 311-6 510-42 64-12 120-19 124-15 18 17-112 82-244 122-75 23-113 27-250 32-145 4-163 6-163 21 0 36 26 54 86 62 156 19 310 2 489-56 64-21 118-35 122-32 10 11-26 55-69 85-153 103-218 122-415 122-158 0-156-1-129 64 9 21 22 35 37 38 28 5 532-60 667-87 76-14 92-20 88-34-16-52-123-497-161-666-82-373-154-806-192-1160-26-248-24-716 5-945 19-152 26-183 54-238 55-110 98-104 98 13 0 82 20 152 92 328 59 141 63 147 77 128 10-13 49-30 106-47 50-14 152-45 228-70 137-44 177-52 177-36 0 37-165 132-299 172-60 19-87 22-147 16l-74-6 26 68c14 37 33 86 42 110 15 38 19 42 42 37 83-21 324-148 455-240 33-23 75-50 93-59 31-16 32-16 32 4 0 27-74 107-169 182-80 64-245 149-330 169-29 7-56 19-58 26-7 18 49 143 64 143 23 0 67-24 282-153 239-143 290-171 299-163 22 22-130 186-238 257-65 43-175 99-245 124-27 10-53 21-57 25-5 3 8 39 27 79 39 81 36 81 130 33 100-49 212-130 311-224 87-83 144-128 144-115 0 20-31 84-67 139-87 133-233 243-390 293l-52 17 35 69c19 38 39 69 45 69s51-13 100-30c135-45 267-116 394-211 28-21 63-41 79-45 26-6 28-5 21 17-12 40-56 99-116 153-114 102-248 165-371 175l-77 6 55 90c31 50 57 91 59 93 7 7 158-62 212-97 32-21 120-96 197-167 76-71 145-130 153-132 39-10-45 160-123 247-72 79-174 146-284 185-49 17-92 35-95 38-10 10 73 118 90 118 60 0 295-116 440-218 187-130 219-152 227-152 4 0 8 10 8 22 0 30-216 242-292 286-85 51-205 99-281 114l-67 14 46 54c25 30 54 59 64 64 33 15 244-106 528-303 41-28 78-51 83-51 42 0-50 106-201 231-84 70-199 141-277 170-35 13-63 28-63 33 0 4 18 26 40 48 34 34 44 39 67 33 35-8 120-61 386-237 114-76 212-138 218-138 30 0-4 48-103 145-124 122-249 211-361 257-39 17-76 34-80 38-15 13 58 80 88 80 70 0 275-137 455-306 57-53 119-103 137-110 18-8 33-15 33-17 0-1-55-58-121-127-67-69-169-183-226-255-292-363-592-904-683-1230-33-119-29-115-113-115q-73.5 0-93-15c-25-19-12-28 79-56 38-11 83-29 100-40 20-11 50-19 79-19 57 0 437-123 603-194 312-136 617-346 845-583 179-186 288-349 340-511 37-113 37-126 3-141-31-14-34-11-56 50-34 92-228 350-236 313-4-21 60-144 150-289 68-109 69-110 46-122-37-20-45-15-76 45-51 98-94 159-197 276-98 111-158 165-171 152-11-11 24-73 121-209 88-125 192-284 202-311 4-11-73-55-79-45-1 2-15 31-32 64-16 33-56 94-87 137-67 89-297 328-315 328-23 0 4-47 110-188 107-142 198-270 236-334l22-37-40-21c-22-11-44-20-49-20-4 0-14 21-20 48-19 71-82 178-154 258-123 140-356 343-369 322-12-20 1-39 137-193 72-82 157-186 189-230 63-87 130-217 122-237-5-15-95-50-101-40-2 4-11 35-20 69-47 180-120 275-407 529-63 56-124 106-136 113-20 10-23 9-23-9 0-13 54-83 136-176 170-194 225-267 271-358 38-76 73-169 73-195 0-20-110-56-115-37-1 6-10 45-19 86-33 151-115 300-240 436-106 116-347 307-360 286-8-13 21-49 164-211 148-166 193-229 246-340 46-96 108-281 97-291-9-9-125-30-134-24-3 2-9 46-12 99-7 108-47 243-99 333-44 77-141 178-223 231-76 50-432 221-459 221-47 0 6-40 302-227 156-99 263-219 324-364 25-61 78-258 78-293 0-12-58-32-67-22-2 2-15 47-28 101-38 154-81 235-178 334-104 107-270 192-516 265-154 44-187 47-163 10 4-7 90-52 192-102 277-135 364-198 452-326 38-55 118-214 133-263 6-22 4-23-57-23h-64l-18 58c-56 177-177 329-326 406-111 58-195 76-535 116-188 22-245 25-245 11s41-25 320-86c174-38 277-66 325-88 104-48 200-130 267-230 37-56 24-67-16-15-70 93-221 190-346 224-97 26-269 24-390-6-272-66-480-190-700-416-181-187-299-377-369-597-50-157-64-260-58-422 9-228 51-377 178-630l81-160-28-22-28-22-20 32c-43 70-137 277-165 364-106 326-103 661 9 946 23 60 89 183 169 316 174 289 175 321 1 91-272-361-350-559-350-893 0-340 94-633 273-850 38-46 39-48 22-67-10-11-24-20-32-20-7 0-57 88-111 198-178 356-189 402-217 867-16 269-21 315-35 315-15 0-20-65-26-340-7-304 3-417 52-588 34-117 118-290 199-409l67-97-23-19c-12-10-27-16-32-14-19 6-130 201-168 294-49 118-124 383-154 537-40 206-52 243-69 201-7-21 19-277 45-434 45-268 119-453 246-607l34-42-33-21-33-21-19 23c-46 53-107 213-181 467-42 146-82 272-90 280-25 24-19-74 15-255 46-247 64-309 130-440 57-112 59-121 43-133-10-7-90-57-178-109-238-143-358-228-459-323-95-90-97-90-30 6 84 119 259 260 477 384 74 42 93 60 63 60-42 0-331-142-433-212-147-101-290-283-351-445-27-74-40-85-62-58-10 12-7 29 21 92 91 208 254 409 477 588 46 37 81 69 79 71-17 18-195-84-311-178-150-120-255-267-311-431q-30-87-45-87c-20 1-50 24-50 39 0 18 117 247 172 335 69 111 156 221 286 359 114 120 138 152 124 161-23 14-181-104-308-229-157-155-279-345-335-527-13-40-24-74-25-76s-23 0-49 3c-37 6-45 11-40 24 3 9 96 185 205 392 110 206 200 380 200 387 0 21-21 13-53-20-52-56-200-259-249-343-71-121-120-230-148-330-25-88-27-90-58-93-18-2-32-2-32 0s51 132 114 288c63 157 112 289 109 293-25 40-217-288-284-483-17-52-39-101-47-107-15-12-72-19-72-8 0 2 38 81 85 176 47 94 85 180 85 192 0 20-1 20-26-4-57-53-204-314-204-362 0-11-19-19-62-29-35-8-65-13-66-12-2 2 19 31 47 66 139 170 162 325 77 505l-35 73 48 55c155 177 182 381 75 572-18 33-34 70-34 81 0 10 13 48 29 83 41 91 54 159 49 248-10 176-126 309-301 345-62 13-62 13-61 47 2 54 198 367 350 559 101 126 305 327 420 412 145 107 239 162 485 281 347 168 346 166 385 597 54 612-15 1075-200 1335-87 120-138 143-241 107-33-11-87-26-120-33-79-15-189-52-299-101-48-21-96-36-106-33s-32 34-51 68c-197 371-521 692-901 891-229 120-429 174-674 183-178 6-272-3-422-43-52-13-96-24-98-24-12 0-57 117-79 203-39 153-50 287-36 428s34 213 66 245c29 29 71 33 60 7-4-10-10-67-12-128-4-88 0-141 21-265 26-156 51-250 66-250 16 0 19 51 14 240-5 170-3 209 15 304 20 109 37 144 64 133 12-4 12-14 1-69-28-130-12-263 55-481 45-144 56-166 79-144 12 13 11 44-8 237-20 192-21 236-11 316 16 135 19 140 76 136 37-3 45-7 40-20-16-41-23-151-15-221 23-195 81-440 106-448 24-8 30 44 23 187-4 80-8 221-8 314l-1 169 38-7c20-3 45-6 54-6 16 0 18-13 17-142s3-160 36-313c40-186 58-239 77-233 15 5 16 62 3 417l-8 244 51-7c84-11 79 2 78-179-1-133 4-192 27-332 34-205 52-267 75-263 16 3 17 35 14 367l-3 364 33-6c18-3 59-13 92-22l58-17-6-42c-42-257-43-556-3-671 13-36 15-38 24-20 6 11 21 171 33 355 13 184 26 339 31 344 4 4 46-6 93-24 94-35 93-35 61-100-44-88-65-243-68-500-1-141 1-192 11-202 28-28 42 15 82 263 36 222 79 449 86 457 5 7 126-62 130-73 3-6-13-56-35-111-49-122-62-171-95-360-34-191-34-195-27-222 6-21 7-22 28-7 18 12 43 80 114 298 50 155 95 297 101 315 6 21 14 30 21 25s31-20 53-36l41-28-45-122c-48-131-122-459-122-539 0-54 19-65 44-25 8 12 56 153 107 312 50 160 95 294 100 299 4 4 51-19 105-53 53-34 100-61 104-61s13 7 20 15c26 31-18 93-185 265l-160 166-139 268c-157 302-168 331-142 370 44 69 308 210 466 251 114 29 224 33 259 9m3858-808c122-102 270-258 331-350 29-43 52-81 52-85s-19-23-42-41l-41-34-16 24c-135 206-282 346-459 437l-83 43 63 40c35 22 73 40 85 40 13 0 59-30 110-74m-3339-1816 23-19-35-68c-63-123-71-171-70-413 1-236 15-370 64-603 42-195 94-365 140-458 26-51 36-79 27-79-66 0-168 227-221 490-38 189-65 516-66 778 0 144 26 307 56 355 27 41 48 46 82 17m-233-71c-24-88-38-342-32-544 8-227 20-362 52-550 41-244 93-391 176-501l46-62-76-32c-253-110-499-259-651-394-212-190-429-473-547-711-21-41-40-75-44-75-8 0-19 38-19 69 0 26 269 435 397 602 100 132 263 301 411 426 67 58 121 107 118 110-7 8-108-47-191-105-302-209-534-462-724-790-49-85-66-84-66 1 0 50 3 57 71 142 39 50 112 146 162 215 169 234 265 329 585 577 161 125 203 163 183 163s-119-54-224-122c-332-213-499-375-750-726l-81-113-20 40c-12 22-21 48-21 58 0 30 241 324 394 481s280 264 421 356c135 88 187 123 220 151l30 25-30-6c-59-12-272-123-409-214-219-145-436-369-609-627-34-51-65-92-68-93-4 0-25 17-49 38l-42 37 170 185c276 299 524 519 820 725 109 76 128 95 97 95-22 0-183-82-289-148-252-156-550-427-756-687-57-71-108-133-114-137-16-11-54-10-61 2-8 13 111 161 249 309 195 210 430 416 729 640 97 72 179 136 182 141 14 22-17 17-70-11-86-46-327-201-440-284-285-209-535-460-721-726-31-43-63-83-72-88-27-13-72-22-72-14 0 5 45 63 99 131 285 356 619 673 1021 970 260 193 303 226 308 241 7 22-33 4-163-72-557-327-1013-741-1326-1207-52-76-84-114-107-125-19-9-36-14-39-11-9 9 208 291 353 461 143 166 475 504 629 640 55 48 179 151 275 227 237 189 271 218 265 228-9 14-45-3-152-72-419-266-820-619-1099-967-122-152-341-461-371-523-14-29-32-61-42-72-16-19-90-60-96-54-8 8 311 462 459 653 259 335 525 607 1011 1036 145 128 160 145 145 154-14 9-50-15-225-150-405-311-727-617-956-910-217-276-502-718-531-823-11-39-62-99-107-125l-31-18 45 128c98 275 230 558 372 794 160 266 313 459 563 709 428 429 832 713 1330 936 52 24 100 43 107 43 8 1 8-12-2-50m343-126c50-118 86-284 103-474 17-192-1-718-23-684-13 20-78 359-98 515-13 97-23 242-27 386-6 223-1 304 16 304 5 0 18-21 29-47m5988-963c27-25 66-56 87-69l37-23-41-77c-22-42-80-133-129-201-191-269-272-387-292-422-75-131 139 28 312 232 117 139 173 191 237 223 47 24 174 70 179 65 1-2-22-53-52-113-61-124-109-296-120-426-5-58-11-82-23-88-9-5-58-16-108-26-51-9-91-21-88-25 10-16 131-32 169-22l36 10v-105l-102-17c-155-27-371-84-696-186-327-101-552-180-552-194 0-5 26-6 58-3 90 8 804 189 1052 267 124 38 230 70 236 70 11 0 24-44 24-81 0-42-348-146-924-274-185-41-727-188-798-216-16-6-28-15-28-20 0-18 71-8 341 46 150 31 389 76 529 100 416 73 589 123 794 228 107 54 110 54 122-11 4-20 1-38-6-47-20-24-228-121-330-154-177-57-314-81-730-126-317-35-540-70-661-105-179-51-508-183-516-206-6-17 59-3 283 59 343 96 419 109 879 152 642 60 810 101 1042 257 70 48 84 53 95 41 18-22 2-40-103-115-164-118-309-178-595-248-198-49-349-72-639-100-671-63-843-119-1344-435-112-70-215-138-230-151-23-20-24-23-7-24 19 0 244 118 416 218 206 121 391 192 614 237 142 29 264 44 676 85 419 42 568 69 810 150 194 65 304 126 412 228 37 35 63 52 73 49 8-4 15-11 15-16 0-17-140-131-249-203-290-191-559-264-1156-313-367-30-521-52-721-104-489-129-868-403-1114-807-90-147-165-324-255-604-46-140-124-381-174-535-130-399-220-613-381-900-113-200-184-302-230-325-23-12-50-20-61-18-17 3-14 14 33 118 29 63 116 243 195 400s162 325 184 373c92 203 180 508 219 760 11 72 25 151 30 175 6 23 10 55 10 70l-1 27-16-30c-18-34-57-167-143-496-32-124-68-248-78-275-11-27-64-128-118-224-166-297-360-702-388-808-13-52-29-99-34-104-6-6-56-13-112-16l-101-5 13 29c7 16 52 108 100 204 97 196 238 542 238 583 0 73-28 24-241-408-100-203-188-378-197-387-21-25-66-22-137 8-145 62-129 59-175 35-44-23-75-27-85-11-8 13 57 176 103 260 57 104 173 274 543 792 192 269 355 501 364 517 22 43 19 55-9 34-33-24-687-828-800-983-113-154-213-351-261-516-13-48-26-89-28-90-2-2-56 13-120 33-81 25-117 41-117 51 0 23 93 192 160 293 89 132 183 240 427 491 308 317 364 391 651 873 212 357 231 394 191 370-6-4-145-208-307-453-320-482-351-521-543-683-315-266-496-491-609-761-21-51-43-94-49-96-8-3-189 88-210 105-7 5 101 160 191 273 123 154 245 278 408 414 201 168 392 347 476 447 152 179 292 425 369 649 41 119 105 346 105 372 0 44-22 7-85-144-228-546-336-688-845-1112-246-204-332-285-436-409-92-109-158-207-224-331l-52-95-71 35c-68 34-215 126-265 164l-22 18 121 128c153 162 361 399 373 425 50 108-215-123-434-377-51-60-99-115-106-123-10-11-19-6-53 24-22 21-41 41-41 46 0 12 133 162 394 443 237 255 262 284 253 292-32 33-499-399-642-593-33-45-63-82-67-83-4 0-16 13-27 29l-20 28 46 74c171 271 327 421 731 707 218 154 262 188 262 204 0 17-45-4-237-114-492-279-721-478-825-716-26-59-24-57-43-42-23 19-18 54 16 123 65 127 143 225 263 325 44 38 268 202 496 365 467 333 484 346 456 347-18 0-104-53-726-446-390-246-450-298-530-449-19-36-38-65-41-65-20 0-26 131-9 176 16 41 112 146 180 198 33 24 151 97 262 162 797 460 952 583 1084 857 81 170 89 249 38 423-52 182-113 293-266 491-108 140-118 158-95 180 15 15 20 12 64-37 214-237 358-535 370-766 7-127-8-197-88-422-33-91-58-173-56-181 5-25 114 200 153 314 70 210 68 343-7 568-75 224-198 446-323 584l-57 62 16 31c9 17 20 28 25 25 17-11 151-195 212-291 135-215 198-382 248-659 18-99 36-189 41-200 25-63-6 281-42 454-56 273-178 516-348 694l-74 77 28 40 28 40 49-62c99-127 211-304 274-436 172-357 206-422 219-422 24 0 18 25-49 226-126 373-211 531-375 692l-63 63 23 25c12 13 26 24 29 24 6 0 93-122 387-545 88-126 143-190 143-167 0 32-41 121-117 256-112 197-172 288-272 415l-83 103 24 25 25 25 140-189c77-103 202-278 277-388 76-110 152-213 168-230l30-30-7 39c-9 53-65 163-186 364-131 216-196 307-291 400l-76 76 40 30c40 29 41 29 57 10 245-298 573-694 576-694 2 0 11-3 21-7 35-13 3 50-113 221-147 218-258 360-357 458-43 43-77 80-75 82s17 10 32 18c28 14 29 13 93-49 127-122 272-203 569-318 192-74 245-90 245-70 0 21-29 39-255 157-304 159-548 309-531 326 3 2 55-24 118-58 254-137 491-229 676-260 213-37 526-23 802 35 372 79 721 218 1175 471 83 45 206 104 275 129 334 125 549 263 781 502 81 83 142 159 203 251l88 132 28-38c15-20 49-57 76-82m611-338c7-42 16-170 20-283 6-209-2-343-33-524-21-125-76-355-85-355-13 0-78 85-94 123-33 80-56 204-62 343-13 292 39 493 184 718 24 37 47 65 50 62 4-3 13-41 20-84m-4372-677c32-9 81-28 109-43 51-27 176-141 176-160 0-16-164 31-325 93-195 75-253 102-235 108 8 3 22 8 30 10 34 12 190 6 245-8m-4014-228c95-62 263-554 263-772l1-90-78-152c-42-84-77-155-77-159 0-3 7-4 15-2 21 5 127 141 186 240l52 87 88-60c88-60 120-94 154-159 39-75 11-239-59-350-20-30-36-65-36-76 0-12 22-50 50-86 58-75 80-131 80-202 0-103-39-194-137-320-32-41-53-78-53-93 0-14 16-51 35-82 42-68 55-110 55-176-1-103-37-160-197-320-62-62-113-119-113-127s11-20 25-26c19-9 24-17 21-34-3-13-12-61-21-106-21-108-49-182-89-235-47-63-82-76-242-87-158-12-211-29-191-62 7-10 40-27 75-38s68-22 72-25c16-10-128-247-180-296-91-87-192-90-430-14-197 64-190 62-190 33s21-60 72-106c40-36 40-36 33-91-8-68-34-128-67-159-45-41-155-70-351-92-220-25-313-47-433-105-178-86-316-224-413-415-61-119-90-208-142-435-48-209-69-259-116-263-38-4-89 42-121 111-26 55-75 247-96 377-56 344-67 1080-21 1475 63 543 215 1025 494 1570 110 217 209 385 330 565 354 528 806 993 1181 1215 237 139 483 201 571 142m9116-319c48-53 158-343 218-573 43-170 98-443 91-460-2-7-31-19-63-25-283-59-475-112-686-189-66-24-60-26-172 43-64 39-192 84-265 93-35 4-49 1-59-11-23-27 8-58 211-211 230-174 288-224 376-328 149-176 249-356 326-587 55-167 74-255 60-278-10-16-194-95-361-155l-71-26-23 62c-95 260-230 458-401 588-140 105-308 169-445 169-64 0-172-24-219-48-169-87-291-298-309-535-4-45 0-198 9-341 17-279 21-546 8-546-14 0-50 43-62 74-7 20-7 58 1 135 8 79 7 171-2 362-15 321-9 536 20 642 42 159 118 274 229 344 29 19 109 52 177 74 127 41 149 53 117 63-21 7-171-17-252-40-173-49-292-173-361-373-51-147-60-342-34-711 8-113 15-238 15-279v-74l-21 19c-12 10-32 38-46 61l-25 43 5 392c4 356 6 402 26 490 44 201 98 307 225 448 77 86 86 113 27 79-192-108-315-308-357-579-17-114-19-415-4-619 6-79 9-145 7-147s-29 23-61 55c-52 56-56 63-52 98 3 21 8 108 11 193 12 311 60 552 155 783 27 66 50 127 50 134 0 56-101-75-170-219-87-183-125-387-124-675 0-134-4-193-11-193-6 0-31 17-55 37l-43 37 7 96c12 195 62 410 152 663 32 86 54 161 50 165-26 25-170-233-220-396-36-115-56-248-56-371v-103l-32 6c-69 14-72 36-29 247 36 179 61 276 112 446 21 72 39 144 39 160l-1 28-29-35c-42-49-114-192-139-275-12-38-37-152-57-254-19-102-37-187-39-189-9-9-34 21-45 53-9 27-7 57 10 152 28 155 53 259 85 362 17 51 23 87 17 93-14 14-67-52-106-134-41-87-61-160-77-285-12-100-21-111-60-72-11 11-18 28-15 37 12 40 46 263 46 302v43l-25-23c-29-27-53-93-75-210-17-84-17-85-45-83-16 1-32 6-36 10s-1 42 7 83c18 95 19 173 2 168-11-3-45-96-76-208-6-20-17-26-69-37-218-44-293-169-280-467 3-73 2-138-2-144-4-7-47-28-96-48-205-82-286-144-348-262-46-89-61-159-55-271 4-85 7-98 51-183l46-91-79-84c-151-160-197-313-154-521 21-101 63-188 124-255 28-30 50-59 50-64 0-6-13-36-29-69-102-206-25-420 189-528 86-43 165-60 248-53l64 5 33-52c44-67 88-109 153-141 62-31 71-44 112-156 17-48 38-95 46-105 14-18 15-16 9 19-3 22-20 75-37 118-17 44-28 82-25 85s29 7 58 8l51 1 32-100c33-102 63-165 80-165 16 0-1 102-33 193l-30 88 26 10c62 24 59 27 142-176 78-193 152-348 171-360 45-28-105 442-176 550-13 20-13 23 1 29 45 17 47 14 194-349 131-322 171-402 171-344 0 65-114 454-182 621-22 54-37 102-34 107s19 14 35 19c29 10 30 10 45-36 101-316 179-581 232-785 35-136 68-256 74-265 8-12 10 19 7 118-6 174-41 347-147 715-44 153-78 281-75 283 7 7 53-98 119-271 117-305 209-716 268-1202 15-130 17-758 2-820-10-39-10-36-22 60-29 230-118 574-209 804-117 296-236 485-428 678-121 122-176 163-219 163-28 0 4-58 168-304 149-223 254-401 243-412-5-5-354 218-507 324-103 72-258 217-407 381-128 141-167 170-148 110 10-29 291-402 360-478 75-80 142-128 460-326 273-170 336-217 354-264 5-14 40-128 76-254 133-462 160-621 152-892-6-187-20-286-72-508-19-81-51-225-70-321-43-211-64-275-212-616-336-774-638-1326-1035-1893-353-503-638-833-863-1000-250-185-562-312-862-352-126-17-420-19-578-5-248 23-486 83-695 175-160 70-417 235-467 299-52 66-74 386-40 586 9 52 57 255 106 450 101 400 133 554 161 779 40 324 65 809 57 1126q-9 336-30 270c-4-11-14-150-22-310-16-314-22-386-60-750-51-484-107-774-235-1220-27-93-56-204-65-245-20-92-31-410-17-495 21-123-29-74-70 69-19 69-23 103-22 236 1 136 4 167 27 250 41 145 85 305 111 405 67 254 92 553 62 742-41 261-172 537-333 704l-64 67 31 22c18 12 35 19 40 14 4-5 47-65 95-134 111-160 166-274 257-537 59-174 74-209 81-190 13 30 29 520 25 742l-3 181-53 109-53 109 84 85c102 104 180 196 271 319 38 51 70 91 72 90 1-2-6-68-16-148-35-263-43-462-28-664 16-229 15-477-6-773-25-353-58-525-167-875-117-379-147-555-115-676 31-114 114-262 147-262 18 0 16 55-7 174-19 96-24 148-19 193 3 35 40 181 81 325 152 526 182 681 200 1021 4 75 10 137 14 137s22-41 39-91c86-246 217-485 389-709 36-47 264-285 506-530 551-556 588-588 236-201-473 519-558 620-691 820-328 493-488 1087-465 1731 18 522 137 974 380 1445 82 159 214 380 223 372 2-3-7-82-21-176-15-96-26-214-26-272 0-285 99-638 283-1004 145-291 177-391 177-565 0-198-54-336-179-461-91-90-174-135-423-230-93-35-168-67-168-71 0-18 53-18 146 1 265 54 449 149 558 287 149 190 191 470 109 729-14 44-76 184-138 310-222 452-288 690-289 1040-1 290 57 566 132 628 13 10 14 8 8-17-4-16-19-94-33-175-24-131-27-171-27-391-1-286 14-388 88-613 46-142 70-192 297-637 158-307 241-506 265-628 18-89 13-208-12-292-20-66-75-179-117-238-21-29-27-46-20-53 42-42 188 158 228 316 19 76 19 223 0 315-35 164-94 299-313 711-77 146-153 293-167 325-75 167-125 326-152 483-21 126-28 395-14 536 15 149 76 466 96 506 9 16 73 89 142 162 70 72 234 250 366 395 131 144 241 262 243 262s-2-15-10-32c-399-940-426-1010-480-1226-47-186-58-270-63-492-4-168-2-239 11-326 37-252 104-437 248-683 108-185 202-409 269-642 28-95 33-131 33-214 0-188-48-287-242-502-117-129-123-138-98-141 58-7 218 90 312 189 145 155 198 380 149 641-4 21-5 38-1 38 10 0 125-177 177-273 92-168 156-328 185-462 11-46 19-161 24-338 4-148 11-271 14-275 45-44 95 415 67 608-17 117-53 223-122 369-86 181-126 247-381 633-304 462-390 628-452 879-68 277-73 573-14 849 28 133 73 265 246 725 82 220 205 553 272 740 68 189 155 409 196 496 40 86 92 211 115 278s45 119 49 114c5-4 16-44 25-88 52-239 148-477 281-697 61-101 219-315 309-418 33-37 75-103 101-155 52-107 108-318 125-472 22-191-15-399-105-589-54-114-84-160-251-390-84-116-135-195-135-210 0-13 3-24 8-24 38 0 290 244 390 378 122 164 196 320 226 481 25 131 20 362-11 465-10 35 16 6 57-63 47-81 150-321 185-434 65-205 102-497 92-727-12-273-60-490-180-820-73-198-97-280-82-280 22 0 50 30 98 108 151 246 239 458 282 677 26 134 26 131 35 115 5-9 17-51 29-95 55-219 66-488 30-725-11-74-23-161-26-194-5-53-4-58 13-55 41 8 120 234 149 424 32 211 15 390-61 664-25 91-59 213-75 271s-40 175-54 260c-62 376-110 541-225 775-111 227-259 437-575 816-76 90-170 214-210 274-124 187-230 416-299 652-70 234-87 332-96 548-12 274-49 419-167 644-69 133-102 180-182 265-75 77-153 136-258 193l-72 39 68 103c38 56 72 103 76 103 17 2 193-140 352-285 95-86 181-161 192-166 18-10 19-9 11 19-12 42-82 137-183 251-96 108-152 157-254 223-40 26-73 50-73 54s8 20 19 35l18 28 104-77c57-43 178-136 269-209 91-72 182-143 203-159l37-28v26c0 55-308 343-483 452-80 50-103 78-73 90 13 5 201-117 479-311 43-30 82-55 88-55 22 0 5 27-60 94-87 89-226 199-356 281-89 56-100 66-98 90 1 15 4 30 7 32 8 8 73-35 324-212 129-91 238-165 243-165s9 11 9 23c0 17-30 53-103 124-115 112-226 197-346 267-44 25-81 50-81 53 0 19 34 93 42 93 5 0 94-65 197-144 192-147 229-172 239-162 13 14-30 66-141 170-65 61-152 135-193 164-40 30-74 58-74 63 0 32 48 8 228-114 193-131 237-156 250-142 14 13-21 46-219 204-112 90-205 169-207 176-6 26 19 26 62 1 24-14 104-64 177-111 74-47 142-85 152-85 38 0-7 43-179 172-193 144-186 135-152 216l13 31 101-62c111-68 221-124 229-115 16 15-22 49-156 139-82 55-149 105-149 113 0 24 137 449 185 572 116 301 226 477 414 664 136 136 240 211 401 292 260 129 454 174 1000 228 353 35 541 61 694 95 278 63 510 175 763 367 56 42 119 86 140 96 99 51 343 123 583 172 167 35 181 36 207 8m-6289-662c120-231 143-296 149-417 4-72 1-110-12-155-18-62-73-174-85-174-15 0-110 272-146 415-30 123-42 308-25 414 11 69 17 91 26 91 2 0 44-78 93-174m3327-1762c52-21 100-56 243-178 450-385 641-593 765-835 108-208 143-370 134-615-15-409-179-776-452-1016-86-75-142-104-295-154-210-69-454-136-491-136-52 1-115 34-134 71-25 47-14 86 58 212 89 154 109 195 97 202-29 18-204-138-274-245q-66-100.5-66-57c0 7 68 109 150 227 175 249 179 258 95 200-83-57-232-245-299-378-24-48-29-52-54-46-15 4-30 9-34 11-12 6 12 40 212 294 220 279 233 296 222 303-14 9-62-22-150-97-139-118-243-247-360-446-7-12-13-11-40 4-18 11-32 22-32 25 1 13 81 111 249 304 209 240 236 274 227 283-22 22-237-143-341-261-55-62-168-221-178-249-6-20-37 12-37 39 0 15 17 44 42 72 120 133 294 319 392 419 60 62 107 115 104 118-23 23-219-123-382-287-71-71-131-126-134-124-3 3 21 52 53 108 99 175 113 202 117 228 6 48-36 30-131-58l-91-84-30 66c-30 67-36 92-22 112 10 15 223 172 309 228 39 25 128 70 198 100 69 30 129 57 132 59 29 30-119 37-208 11-149-45-354-177-434-282l-33-42-11 31c-20 59-14 98 21 130 60 57 457 239 608 279 46 12 80 35 80 53 0 15-163 1-252-22-132-34-265-98-400-193-9-7-20-9-23-6-12 12 55 98 142 181 132 128 139 156 53 228-28 23-50 46-50 50 0 13 90 38 179 50 81 11 163 9 409-7 56-4 92-3 92 3 0 15-69 50-135 68-94 26-328 31-445 10-52-9-101-18-109-18-18-2-33 51-21 73 13 24 29 29 145 45 114 17 331 19 420 5 88-13 154-15 157-5 3 16-80 52-167 75-160 40-356 43-479 6-25-8-47-12-50-9-10 11 18 52 43 62 105 42 234 41 482-4 213-38 234-41 223-24-10 17-139 73-209 92-85 24-248 47-325 47-57 0-62 1-45 14 11 7 75 32 142 56 77 27 130 51 145 67 25 27 24 15 17 268-3 107-1 139 14 183 45 128 119 159 252 106m-4672-156c-39-101-60-135-48-78 12 56 66 170 80 170 2 0-13-42-32-92m-505-27c11-6 3-24-33-77-170-252-212-532-129-851 42-163 99-279 213-433 65-87 356-388 366-378 7 7-21 44-171 228-144 177-213 294-273 464-79 225-81 472-5 701 32 97 119 277 146 301 18 17 21 17 63-6l43-24-49-60c-103-128-151-269-150-447 1-261 67-429 286-721 122-163 177-225 161-183-4 11-45 83-91 160-95 159-143 257-180 371-76 231-73 480 7 721 16 51 36 100 43 110 13 17 15 17 50-1 25-14 34-24 29-35-43-102-48-136-48-301 0-133 4-186 23-270 54-253 141-449 333-747 38-58 62-107 65-132 12-90-37-302-99-426-85-169-259-343-513-512-141-94-271-164-970-523-289-148-603-189-1025-134-265 35-498 92-739 183-179 68-218 66-155-9 66-78 196-159 347-215 319-118 675-177 937-156 52 4 97 6 99 5 2-2-35-40-83-85-154-145-220-250-311-492-36-96-51-151-48-170 6-31 4-30 37-16 23 11 62 62 243 322 26 38 95 114 153 170 162 157 342 277 610 409 636 312 829 421 1088 615 322 241 489 484 533 772 7 45 16 81 21 81 25 0 195-331 243-472 71-215 83-408 35-578-45-160-177-389-335-580-43-52-229-246-414-430-346-344-472-487-594-670-88-134-120-197-162-323-43-130-59-245-52-361 8-120 27-185 98-341 80-173 109-205 109-121 0 25-14 98-32 163-30 109-32 130-32 268 0 134 3 159 28 239 69 227 170 397 371 625 44 49 81 89 82 87 2-1-6-45-17-97-29-136-36-336-16-485 19-145 55-293 92-374 47-105 56-64 37 177-25 339-16 529 37 778 34 156 56 195 179 310 489 459 707 752 807 1080 26 83 28 103 28 265 0 159-3 184-28 274-14 54-47 149-72 210-80 196-146 310-463 793-83 128-169 265-190 305-89 168-171 432-171 552 0 63 32 212 49 229 6 6 9-57 9-154-1-138 3-177 21-244 44-164 165-369 509-863 269-386 378-609 446-915 14-62 28-142 32-179 5-47 11-68 20-68 29 0 37 42 31 165-7 142-26 242-73 385-70 211-156 358-478 813-225 320-281 415-351 597-37 95-78 252-73 276 2 13 90-101 140-181 4-7 14-47 23-90 42-202 109-318 462-801 112-153 156-223 310-494 74-129 139-239 144-244 37-38 12 69-58 244-84 214-191 397-382 655-150 203-293 423-330 508-18 43-31 80-29 82 6 7 134-78 171-113 34-31 60-80 76-138 15-55 58-120 277-417 187-252 231-307 246-307 41 0-92 236-355 630-53 79-94 146-92 149 3 2 37-8 76-24 55-21 89-44 143-95 88-83 134-114 262-178 55-28 106-57 112-65 7-8 26-66 42-129 29-116 85-258 134-342 50-86 148-206 217-269 124-110 159-193 159-373 0-164-43-297-153-474-77-123-55-158 47-75 163 133 256 355 244 583-3 45-1 82 3 82 13 0 113-82 187-154 153-148 216-275 247-496 32-226 55-218 62 24 6 192-7 273-64 384-52 104-139 193-408 417-248 207-334 291-401 396-78 120-189 367-173 383 3 3 24 0 47-6 40-10 42-12 42-47 0-99 78-240 209-375 98-101 190-172 436-336 307-205 371-279 499-568 33-72 61-130 64-128 8 8-80 259-116 331-69 139-130 204-422 451-277 235-413 358-458 417-48 62-144 218-138 224 2 3 64-3 138-13 184-23 476-15 673 20 135 24 140 24 165 6 47-33 216-215 258-277 99-146 186-362 202-501 4-42 6-197 3-344-5-202-3-268 6-268 6 0 15 10 20 23 12 32 31 196 40 349 29 459-111 795-432 1040-80 61-85 72-44 106 30 25 282-186 373-314 89-125 189-377 220-557 21-117 14-320-16-461-70-329-252-691-511-1017-95-118-189-224-443-494-99-104-217-232-262-283-334-374-560-741-703-1142-102-285-120-325-193-431-164-241-392-502-553-637-53-44-164-129-248-188-447-319-606-455-686-589-41-68-75-189-60-217 5-10 12-18 15-18 19 0 52 31 119 115 42 53 109 128 148 167 64 62 239 201 321 254l29 18 57-61c73-77 179-236 224-336 145-318 158-607 46-1067-40-165-59-220-75-220-24 0-24 28 3 192 23 144 26 193 26 413 1 281-12 374-79 583-63 192-186 413-224 401-7-3 9-60 40-149 130-370 158-478 180-690 13-128 7-353-16-630-24-288-17-365 20-236 9 29 22 61 31 72 14 18 15 16 10-26-2-25-17-101-31-170-25-113-27-137-21-260 3-74 9-146 12-160 12-55-294 286-472 525-181 244-463 692-504 802-27 71-28 128-7 310 42 369 141 492 782 980 317 241 388 309 594 573 101 130 151 210 130 210-6 0-72-63-146-140-248-258-441-414-884-720-137-94-370-330-428-434-99-175-133-338-111-533 7-62 10-116 7-119-10-10-58 72-82 142-21 58-25 88-25 185 0 181 35 330 115 489 87 173 160 258 482 563 411 389 556 573 632 803 18 52 34 125 37 162 5 62 4 65-10 48-9-11-23-40-32-65-86-236-190-403-368-588-48-51-199-198-334-325-134-128-276-269-314-313-177-203-253-377-280-643-10-101-13-113-25-96-33 45-37 91-19 187 38 201 125 404 243 570 32 44 153 178 268 296 448 460 536 576 586 770 32 124 39 401 9 401-13 0-27-53-51-200-55-342-117-439-570-892-174-174-319-327-349-370-108-152-176-326-206-527-8-57-10-55-130 149-370 629-369 629-430 875-67 274-94 474-94 715 0 431 88 734 326 1125 79 129 109 185 98 185-12 0-51-25-84-53-113-98-258-297-339-468l-50-104-1 95c0 155 30 312 116 597 50 166 51 202 2 164-34-27-129-222-172-352-81-249-89-401-52-974 30-451 37-531 66-699 11-66 18-121 16-124-9-8-64 115-99 223-105 323-157 628-157 922 0 241 28 408 124 745 13 48 21 90 17 93-12 7-93-174-129-286-116-361-118-812-6-1244 41-157 41-157 3-115-49 55-76 125-98 260-36 215-41 287-48 580-3 157-9 294-13 305-11 30-37-64-51-188-24-216-14-486 27-706 6-31 5-32-14-22-45 24-61 70-81 242-28 234-31 271-40 497-8 186-17 240-37 220-23-24-38-497-21-681l8-89-25 19c-50 36-56 64-81 408-27 361-30 381-51 364-11-9-14-67-14-305 0-170-4-294-9-294-21 0-60 62-65 103-3 23-10 146-16 272-11 217-19 269-39 236-5-7-12-108-16-224-4-117-9-214-11-216s-14 4-25 15c-44 39-47 64-39 304 7 217 1 297-20 260-13-23-37-162-51-293l-12-118-28 27c-49 46-52 68-40 228 14 180 14 256 1 256-17 0-29-45-52-191-12-77-25-139-28-139s-21 19-39 43c-32 41-33 44-27 112 3 39 9 120 12 180l5 110-20-35c-11-19-29-77-41-127-12-51-25-93-29-93s-24 26-44 57l-38 58 7 97c8 112-3 127-31 43-11-30-22-55-25-55-6 0-100 167-146 260-69 141-202 476-191 486 2 3 72-22 154-55 224-89 368-119 506-106 108 11 86 32-69 66-194 42-574 177-620 220-14 13-29 41-35 63-5 23-13 49-16 60-4 16-1 18 22 12 14-4 138-60 273-125 256-123 349-161 442-180 86-17 329-33 348-22s-7 18-150 45c-169 31-318 92-638 261-92 48-206 91-292 109-27 6-48 46-48 91v23l78-15c153-29 218-58 412-186 220-146 387-206 595-214 177-8 404 38 453 90l22 23h-278c-254 0-283 1-354 21-113 32-208 79-369 183-235 152-335 189-502 190h-78l3 31c3 30 7 33 111 70 136 48 209 93 284 172 68 73 111 152 184 337 29 74 99 228 156 341 101 202 126 268 84 224-26-28-180-274-235-376-25-47-64-130-86-184-50-124-77-169-140-238-67-73-134-117-267-176l-111-49-7 35c-3 19-4 37-2 39 2 3 37 14 77 25 39 11 90 29 112 40 54 27 134 103 164 155 33 57 78 181 109 305 72 284 143 405 359 618 64 62 116 117 116 122 0 23-37 2-146-83-310-239-349-295-449-634-66-226-89-277-156-339-51-48-176-113-189-98-4 4-11 22-15 40-5 26-3 32 16 38 36 12 99 76 125 128 14 27 41 117 60 200 72 319 167 516 317 654 139 128 283 183 552 208 193 19 293 39 364 72 104 50 176 152 188 269l6 56 46-9c25-4 96-8 156-8 101 0 115 3 167 29 74 38 130 96 172 181l34 69 11-39c6-22 31-123 55-225 100-412 110-532 62-674-39-115-64-150-175-254-167-155-239-175-630-174-134 0-253-3-265-8-19-8-19-9 14-23 61-26 279-58 435-64 83-3 156-9 164-13 30-16-137-154-267-219-67-34-231-91-261-91-21 0-57-37-47-48 15-15 210-4 289 17 144 38 204 77 392 261 94 92 206 197 250 234 145 124 216 233 249 383 34 155 15 299-89 683-71 258-105 402-105 439 0 28 2 29 75 40 42 6 93 20 114 30 118 60 210 252 211 437v61l57 12c31 6 58 9 60 7s-14-46-36-97c-87-204-116-354-108-556 11-298 112-510 403-838 53-60 105-116 115-123 42-29 16 19-78 149-53 74-121 171-150 217-177 270-236 555-177 862 19 102 111 374 132 393 9 8 45 18 80 21l63 7-40-63c-59-94-118-223-143-313-28-104-31-350-5-463 61-265 149-421 373-659 101-109 149-151 159-141 2 2-53 77-123 166-71 89-148 196-172 238-141 247-192 579-126 828 26 102 126 322 172 383 22 29 31 33 72 33 26 0 53-4 60-9m1086-6778c41-83 68-320 64-568l-3-170-49 95c-78 152-121 222-217 351-87 117-90 122-70 135 11 8 71 52 133 99 62 46 116 84 120 85 4 0 14-12 22-27"/><path d="M7715 15443c-9-9-12-20-7-29 5-8 120-60 258-114 265-106 557-245 819-390 170-93 200-106 209-91 8 12-35 45-224 173-197 134-337 215-488 283-129 59-374 143-485 168-60 13-69 13-82 0m-1190-188c-119-26-317-116-460-209-168-110-406-319-385-340 7-7 30 4 72 34 353 245 536 344 814 440 139 48 155 58 122 76-29 17-86 16-163-1m1247-3c-10-7-8-12 5-24 25-22 1004-450 1012-442 9 9-42 47-159 118-217 132-540 278-732 331-103 28-107 28-126 17m-1182-118c-95-32-297-129-407-195-153-93-413-300-413-330 0-21 42-5 145 57 236 143 444 258 626 349 183 92 218 117 188 136-23 14-60 10-139-17m1296-62c-14-24 44-57 284-160 256-110 310-130 310-114 0 21-59 56-266 162-170 87-232 114-271 117-29 3-53 1-57-5m-1371-151c-117-34-219-101-364-237-70-66-113-126-99-140 10-10 443 287 536 368 30 26 31 28 10 27-13 0-50-8-83-18m30-191c-111-27-277-150-325-240-12-22-11-23 21-16 61 12 368 234 354 256-7 11-8 11-50 0m-1280-492c-295-161-634-405-854-614-182-173-381-421-465-579-31-59-33-75-7-75 14 0 49 38 110 118 146 191 248 309 391 452 156 155 281 258 610 500 129 95 244 181 255 191 19 19 19 19 0 19-11 0-29-6-40-12"/><path d="M5184 14049c-519-338-876-676-1079-1021-54-90-68-138-42-138 8 0 75 75 149 168 251 308 314 371 811 796 147 126 267 233 267 238 0 18-31 5-106-43m-2-194c-50-29-239-168-377-278-304-244-774-796-630-741 9 4 138 130 288 282 150 151 378 372 507 490 208 190 270 255 258 267-2 2-23-7-46-20m-49-238c-51-29-359-294-496-427-228-221-393-429-381-477 6-20 9-21 34-10 38 17 890 894 890 917 0 13-20 12-47-3m2-264c-108-57-523-451-656-623-131-169-163-234-121-248 15-5 11-9 402 408 167 179 329 351 358 382 35 37 52 63 50 76-3 19-5 20-33 5m-310-574c-82-70-128-119-236-248-84-100-100-141-56-141 18 0 63 46 193 196 193 225 214 254 181 254-7 0-44-27-82-61m5515 1356c-37-14-142-61-490-222-544-252-1047-424-1505-513-127-25-175-38-175-50 0-46 307-11 655 76 371 92 749 253 1285 545 237 130 280 156 280 169 0 12-6 12-50-5m569-119c-23-8-40-22-51-46-21-41-24-93-5-88 6 2 84 21 171 43l159 39-84 23c-140 39-153 41-190 29m-599-116c-30-10-163-62-295-115-663-267-989-376-1388-465-93-21-174-43-179-48-25-25 52-22 244 8 460 72 808 193 1469 513 175 84 219 110 207 122-2 2-28-5-58-15m466-49c-64-22-71-41-17-41 35 0 43 4 56 30 9 17 14 30 13 29-2 0-25-8-52-18m-2768-1739c-50-53-92-116-115-169-13-32-13-33 4-24 49 27 173 187 173 223 0 28-14 21-62-30m207 29c-93-56-251-288-271-397l-7-39 45 55c25 30 90 120 145 201 137 199 145 215 88 180m134-14c-34-26-218-281-269-372-72-130-94-229-40-180 17 16 154 231 283 445 62 104 72 142 26 107m-1201-364c-14-15-76-105-136-200-228-357-424-590-674-805-121-104-147-138-102-130 29 5 156 87 243 155 241 192 425 437 630 838 75 148 88 194 39 142m-1167-1250c-57-52-394-458-407-490-8-18-14-39-14-48 0-19 29-19 57 0 19 14 325 408 387 499 44 65 30 88-23 39m971-478c-79-122-248-483-239-508 7-20 88 73 139 159 79 136 148 325 136 379-3 16-10 10-36-30m-280-268c-29-49-82-160-82-174 0-16 34 26 56 69 30 59 66 149 61 154-2 2-17-20-35-49m-3565 3758c-177-68-415-243-639-472-92-93-118-126-118-147 0-25 2-26 23-15 12 7 146 103 297 214 445 327 457 333 610 342 108 5 130 10 130 27 0 43-227 81-303 51"/><path d="M3210 13365c-199-42-302-114-557-394-112-122-139-158-129-168 11-11 46 15 204 151 253 217 368 281 620 347 46 12 82 26 82 33 0 34-124 52-220 31m35-179c-66-21-138-62-223-126-88-66-309-291-323-329-26-66 25-37 281 157 140 107 266 176 413 227 44 16 77 33 77 41 0 39-138 58-225 30m196-122c-103-22-163-58-284-169-133-122-259-251-276-282-11-21-10-23 17-23 21 0 79 38 228 150 109 82 246 177 304 212 110 65 140 86 140 99 0 5-59 32-64 28-1 0-30-7-65-15m49-161c-28-10-368-258-380-277-17-27 0-36 42-22 35 13 242 130 356 203 55 35 84 79 60 95-14 9-55 9-78 1m-1457-290c-197-278-315-466-452-719-358-662-586-1439-657-2241-26-284-6-734 41-973 40-199 68-303 88-323l21-21 6 29c4 17-5 156-18 310-29 333-36 890-14 1080 66 562 166 1003 326 1445 127 348 247 596 502 1041 217 379 274 482 274 498 0 29-27 0-117-126m1747 83c0-8 14-51 30-96 49-133 38-207-45-299-75-82-75-140 0-286 34-65 55-120 55-140 0-36-30-85-99-161-54-59-76-117-66-176 4-22 25-83 48-136 31-75 40-111 41-158 1-81-27-123-145-216-57-45-100-88-117-117-26-44-27-51-24-169 3-140-5-163-70-224-44-42-45-61-3-66 71-9 138 27 173 92 13 25 16 55 15 146-1 63 3 130 8 148 8 23 37 53 104 107 108 86 149 140 171 224 19 78 9 138-46 267s-54 139 27 226c76 84 102 134 103 198 0 62-44 152-114 229-31 35-56 72-56 82 0 12 20 32 54 54 98 62 131 122 130 235 0 78-32 156-88 213-38 38-86 51-86 23m-1146-248c-184-193-394-484-527-729-44-80-60-139-38-139 14 0 50 50 226 305 87 127 211 304 275 395s125 180 134 198c27 53-3 40-70-30m-205 9c-9-7-89-109-179-227-160-211-220-312-220-367 1-28 1-28 41 16 83 92 285 396 353 530 29 57 30 66 5 48m404-60c-127-132-473-598-576-775-94-162-117-215-117-269 0-30 2-33 18-24 11 6 58 77 107 158 48 81 203 317 345 523s262 385 269 397c20 39-4 33-46-10m206-87c-19-11-166-178-275-315-221-274-422-590-500-782-33-81-36-95-26-119l13-26 18 23c10 13 59 96 109 185 115 203 163 276 437 664 122 173 230 327 239 342 18 28 11 42-15 28m159-152c-177-202-318-387-464-608-122-186-185-298-252-445-72-157-77-216-19-201 19 4 30 20 47 63 76 189 166 340 500 833 267 394 281 416 273 424-13 12-23 4-85-66"/><path d="M1898 12093c-22-26-265-495-341-659-278-600-416-1177-458-1914-23-396 17-860 66-780 4 6 11 169 16 363 17 640 63 1036 175 1487 83 335 176 590 426 1170 116 269 144 338 136 346-3 2-12-4-20-13"/><path d="M1815 11637c-25-38-131-290-200-472-183-489-292-1001-335-1575-16-201-10-510 9-533 38-46 46-14 70 279 70 826 107 1027 317 1721 113 374 174 581 174 594 0 17-19 9-35-14"/><path d="M1873 11272c-12-20-46-95-75-167-236-563-347-1099-337-1624 4-165 6-193 22-208 16-17 18-16 36 2 16 16 23 50 36 180 74 721 99 864 265 1473 50 182 90 340 90 351 0 34-16 32-37-7m51-368c-39-89-121-365-160-539-58-259-85-463-91-696-6-229-3-249 47-249 44 0 37-36 126 685 25 203 63 465 85 582 41 222 46 273 28 273-5 0-21-25-35-56m141-286c-33-47-120-370-155-571-39-229-36-473 7-509 13-10 18-8 34 11 11 13 19 28 19 35 0 6 29 222 65 480 77 553 81 625 30 554m183-234c-53-121-138-451-159-624-14-106-5-155 26-155 11 0 27 14 36 30 21 36 153 748 144 776-10 31-25 22-47-27m538 10c-3-8 1-28 9-44 29-57 155-77 231-37 35 18 25 23-88 48-51 11-103 27-115 35-28 18-30 18-37-2m-106-165c0-32 63-86 107-93 112-16 198-17 218-2 11 8 18 16 15 19-6 5-321 97-332 97-5 0-8-10-8-21m-78-166c4-36 73-88 146-109 103-30 231-5 342 66 50 32 65 60 33 60-10 0-56-9-103-21-116-28-205-27-309 5-107 33-113 33-109-1m9673 3211c-174-30-271-56-355-96-60-29-552-391-594-437-19-21-19-21 15-21 64 0 111 28 435 252 205 141 309 192 507 248 165 46 211 63 200 73-11 11-60 7-208-19m47-140c-193-50-379-136-557-255-130-87-205-156-205-188 0-29 0-29 130 53 129 82 486 262 677 341 78 32 139 63 137 67-9 15-88 7-182-18m68-135c-204-55-434-165-596-284-94-69-126-107-106-127 4-4 39 12 77 35 39 23 218 116 400 207 371 186 417 220 225 169m-24-120c-154-51-306-123-426-204-103-68-156-117-146-134 7-11 756 357 756 371 0 18-72 5-184-33m109-84c-188-51-419-152-522-229-71-52-80-72-30-63 38 6 584 252 610 275 38 33 20 38-58 17m-75-139c-58-18-130-43-160-55-75-30-203-108-219-133-12-19-11-19 21-13 119 25 435 161 498 214l25 20h-30c-16 0-77-15-135-33m-1820-121c-706-70-828-84-960-111-370-74-649-227-863-471-99-113-217-293-223-340l-5-38 78 85c310 339 492 477 775 586 134 52 270 81 528 114 537 69 1117 175 1128 208 2 6-2 12-10 11-7-1-209-20-448-44"/><path d="M10560 12394c-140-18-356-45-480-59-423-48-530-73-725-170-136-68-269-162-391-278-85-80-115-120-101-134 3-2 83 50 179 116 176 122 346 217 473 264 123 46 214 66 485 107 451 69 890 158 890 181 0 14-54 10-330-27"/><path d="M9725 12064c-230-67-399-147-561-267-98-73-248-227-326-338-116-161-210-369-168-369 5 0 71 82 146 183 172 228 352 412 500 510 56 37 195 112 310 168 268 128 274 131 268 141-9 14-46 8-169-28m1925-58c0-8 58-67 129-130 259-232 388-398 569-737 114-214 149-275 174-308 28-37 34-2 13 77-61 227-212 518-371 713-64 78-217 227-294 286-124 94-220 137-220 99"/><path d="M11613 11844c-5-12 38-60 158-178 90-89 193-195 228-236 80-93 187-255 281-425 39-71 78-137 86-145 24-24 18 18-17 117-86 246-215 451-398 633-118 118-286 250-318 250-7 0-16-7-20-16m-56-188c5-9 46-49 91-89 176-156 300-312 479-597 152-242 148-238 162-224 37 35-77 289-211 469-141 190-348 387-449 429-67 27-82 30-72 12m-2827-82c-118-99-256-325-276-454-5-33-4-42 6-38 12 4 245 374 291 461 28 53 20 65-21 31m-998-1933c-9-5 16-33 80-91 228-203 326-336 418-570 74-185 106-322 175-732 36-216 72-421 80-454q49.5-213 162-372c60-85 76-70 33 29-136 315-176 471-230 896-17 131-39 286-50 344-52 276-146 522-254 666-111 148-359 318-414 284m364-2173c-19-62-54-174-77-248-64-209-130-380-246-633-229-502-301-693-345-907-21-103-23-142-23-370 1-197 5-278 18-355 21-118 36-165 54-165 10 0 13 57 13 278 0 152 5 329 11 392 23 248 106 540 239 835 149 330 222 517 293 755 36 116 100 395 112 483 11 84-13 52-49-65"/><path d="M8171 7438c-4-13-11-45-15-73-25-174-71-434-95-529-31-122-78-240-212-537-137-306-182-453-214-692-21-167-20-267 5-267 8 0 21 50 66 255 55 252 126 460 227 661 102 205 160 369 202 579s79 625 56 625c-6 0-15-10-20-22m76-320c-8-291-39-428-162-707-76-173-114-286-149-444-31-137-45-277-28-277 16 0 39 38 52 88 12 48 101 285 220 587 100 254 128 351 142 494 9 97 8 136-5 242-18 134-35 200-53 206-8 3-13-54-17-189m100-180c-7-263-23-410-67-647-17-89-30-179-28-200l3-36 33 50c95 145 148 417 139 725-5 181-17 252-55 311l-19 30zm723-33c0-3 89-140 198-303 208-313 308-492 386-695 62-160 91-269 147-546 27-134 51-246 53-249 40-40 28 268-20 508-39 193-120 415-219 595-105 193-321 492-444 616-52 52-101 88-101 74"/><path d="M9350 6746c0-7 38-71 84-142 209-321 305-525 438-929 110-335 118-356 129-349 37 23-32 394-116 620-102 271-284 576-446 745-65 68-89 83-89 55m300-171c0-3 36-77 80-166 130-259 229-491 310-724 43-127 56-155 70-155 32 0-8 231-75 435-94 287-288 615-363 615-12 0-22-2-22-5m295-137c3-18 15-60 25-93s49-176 85-318c66-260 81-307 97-307 13 0 9 48-17 200-40 224-118 501-151 535-28 27-46 19-39-17m-669-467c-3-5-10-42-16-82-38-271-154-564-297-754-37-49-175-199-305-331-218-222-255-264-229-264 27 0 335 253 457 376 203 204 341 445 394 688 36 166 33 428-4 367m50-567c-84-176-171-322-268-452-73-97-158-186-431-452-100-97-144-147-137-154 11-11 156 83 285 187 126 101 324 312 399 424 114 172 175 320 230 566 14 59-12 20-78-119"/><path d="M9357 5138c-30-63-75-147-99-184-110-170-336-420-551-612-80-71-115-108-108-115 23-23 279 162 425 308 197 195 331 393 384 565 31 99 33 115 18 136-13 17-19 8-69-98m-3021-95c-16-32-178-539-200-628-48-191-61-459-31-656 34-234 113-460 163-467 19-3 22 1 22 30 0 18-14 116-30 218-41 253-54 425-46 610 7 197 21 287 96 620 33 148 60 276 60 285 0 24-18 17-34-12m3057-231c-39-67-127-168-361-417-199-210-252-275-227-275 13 0 91 55 182 128 181 146 351 340 424 485 45 87 28 158-18 79"/><path d="M6387 4758c-24-51-86-268-108-376-27-135-35-307-19-428 31-253 140-549 209-567 32-8 31 33-5 170-89 336-111 706-60 1023 23 149 27 210 11 210-7 0-20-15-28-32m1138-165c11-50 116-286 161-367 64-113 119-187 222-299 148-159 260-317 366-517 145-276 189-592 128-923-16-84-17-97-4-95 21 4 48 61 73 153 19 69 22 107 22 275 1 231-15 326-86 498-95 234-247 466-445 676-144 152-226 263-302 406-33 63-74 139-90 168-33 57-56 70-45 25"/><path d="M6490 4444c-6-14-13-135-16-268-5-198-4-257 10-333 32-184 113-383 155-383 10 0 21 6 24 13 2 7-8 78-24 157-37 191-54 309-83 580-14 124-28 233-31 243-10 24-24 21-35-9m1377-276c80-86 330-376 409-474 225-281 286-515 255-982-9-132-8-178 1-195 11-21 12-21 26 13 49 118 74 412 53 599-34 293-151 517-397 765-134 135-334 306-358 306-18 0-16-4 11-32m-1190-100c-7-23 27-298 45-363 16-63 47-115 74-127 20-10 27-9 34 3 5 8 8 21 5 29-2 8-25 98-50 200s-53 206-61 233c-17 50-38 61-47 25"/><path d="M8142 4061c7-10 84-94 171-187 232-247 326-398 380-614 20-78 21-108 19-350-1-224 1-262 12-247 13 17 46 158 66 282 16 95 12 241-9 341-36 176-128 339-271 484-106 107-345 310-364 310-15 0-15-3-4-19"/><path d="M8480 3998c0-7 49-76 108-153 142-185 168-223 208-310 68-147 98-353 88-613l-5-147 20 24c60 68 87 319 56 521-33 219-88 313-338 573-106 110-137 134-137 105"/><path d="M8766 3881c-3-4 27-66 65-137 178-325 228-460 259-699 15-119 18-127 35-94 26 49 37 154 25 242-26 187-104 351-287 599-61 83-87 106-97 89m309-202c11-40 196-482 211-506 18-29 28-29 42 1 28 62-67 301-181 450-56 75-84 96-72 55m-1900-166c-101-291-134-328-433-482-193-100-242-130-242-151 0-17 15-12 197 60 262 104 373 183 438 310 14 28 28 50 30 48 1-1-1-32-6-68-21-148-65-230-236-440-46-56-83-105-83-111 0-20 24-6 104 66 243 216 277 297 302 717 7 115 1 188-15 188-5 0-30-62-56-137m2111 42c18-80 104-255 124-255 37 0-33 171-101 250l-30 35zm84-677c-22-29-246-336-498-683-251-346-512-702-578-790-215-285-377-413-627-496-117-39-128-45-104-55 43-16 233 33 349 92 264 132 459 352 917 1034 180 268 578 892 592 927 15 40-9 26-51-29"/><path d="M9183 2818c-32-35-525-693-678-908-136-190-238-314-354-434-124-127-212-201-336-282-93-61-105-71-105-91-1-72 270 81 453 256 129 124 180 188 374 466 289 415 693 1007 693 1016 0 17-16 9-47-23m-3058-361c-12-48 167-425 286-602 188-280 380-440 823-685 154-86 203-102 151-51-17 16-113 86-215 156-240 166-303 216-430 345-142 144-225 259-420 581-91 150-170 274-177 277-7 2-15-8-18-21"/><path d="M8762 2448c-11-13-95-122-187-243-91-121-205-267-253-325-92-112-308-332-457-466-49-45-87-85-82-90 12-12 184 81 277 150 99 74 256 233 322 326 118 166 418 643 418 665 0 12-18 4-38-17m-2688-310c16-81 130-282 240-423 91-115 255-269 376-351 156-106 498-294 535-294 42 0 0 34-247 198-322 215-485 369-707 667-179 242-211 275-197 203m2126-190c-130-126-226-211-409-365-20-16-23-24-14-33 49-50 352 192 512 409 140 190 114 187-89-11"/><path d="M6050 1850c0-59 146-256 302-406 165-159 370-292 619-400 119-52 271-104 282-97 18 11-31 44-218 143-208 111-364 210-495 316-103 82-331 304-408 396-57 70-82 84-82 48m-60-273c0-28 68-116 165-212 160-161 354-280 715-442 178-80 220-94 220-73 0 10-66 51-320 197-291 168-503 316-668 467-79 73-112 91-112 63m10-276c0-5 18-36 41-70 90-134 312-291 588-416 191-85 390-144 422-124 8 4-67 47-192 109-248 125-444 233-564 313-100 67-240 172-250 187-8 12-45 13-45 1m0-336c85-91 457-272 614-300 59-10 42 12-49 61-98 53-557 264-575 264-8 0-4-10 10-25m3540 9805c0-28 44-119 93-193 65-98 118-149 292-283 328-253 355-270 355-221 0 27-172 200-355 357-66 57-175 159-242 227-113 114-143 138-143 113m70-364c0-8 27-45 60-83 103-119 262-249 376-309 68-35 89-40 113-25 22 14 11 24-258 230-245 187-291 217-291 187m190-327c0-21 72-110 118-144 43-33 92-46 92-25 0 18-73 91-136 136-65 47-74 51-74 33m600-178c0-4 24-66 54-137 89-214 91-223 90-364-2-208-60-432-175-667-93-190-188-308-314-388-76-49-139-72-313-115-84-21-156-41-159-44-16-15 18-21 125-20 270 1 476 116 627 347 204 314 324 786 260 1026-35 134-195 431-195 362"/><path d="M10314 9778c20-90 28-253 17-346-25-215-83-368-240-632-57-95-109-188-117-206-13-30-13-34 1-34 21 0 50 32 164 185 208 277 268 426 278 685 6 152-9 251-49 323-26 47-62 64-54 25"/><path d="M10140 9615c0-60-26-222-46-293-32-111-98-269-173-421-58-116-73-161-51-161 40 0 198 253 269 433 68 172 83 414 28 449-18 12-27 9-27-7m-6598 463c-16-16-15-110 2-200 8-40 40-147 70-237 70-206 93-315 102-467 17-307-55-454-315-641-117-85-151-112-151-125 0-14 20-9 103 28 223 98 367 236 428 411 65 186 65 404-1 639-12 43-55 171-95 284-124 347-117 334-143 308m-613-546c-19-21-58-67-86-103-99-121-222-211-406-298-137-65-168-93-121-111 54-21 204 14 319 73 116 60 236 182 293 297 43 88 62 163 44 174-5 3-25-11-43-32"/><path d="M2993 9373c-118-147-233-249-382-338-93-57-115-79-91-96 40-26 194 30 300 110 30 22 77 67 103 99 78 93 155 272 117 272-5 0-26-21-47-47m1802-654c-245-277-321-342-638-545-342-220-534-317-799-405-314-104-508-125-850-90-222 23-338 27-338 12 0-12 10-15 169-46 179-34 287-45 466-45 232 0 380 31 670 140 256 96 455 200 715 373 385 256 596 456 753 712 36 59 45 85 29 85-4 0-84-86-177-191m165-476c-82-91-255-247-375-337-203-153-359-239-660-364-370-153-527-233-675-342-100-75-208-177-280-265-145-178-287-435-241-435 13 0 59 59 161 203 240 339 518 539 1049 757 376 154 599 282 839 483 123 103 228 239 257 335 12 40-20 25-75-35"/><path d="M5009 8039c-240-216-342-284-698-464-271-136-656-354-678-383-21-26-16-45 10-38 52 13 1057 518 1122 564 102 72 195 161 285 273 91 113 106 137 93 150-6 6-58-34-134-102"/><path d="M5032 7868c-272-267-337-309-792-512-268-120-317-147-304-167 12-20 75-5 286 72 380 137 554 235 733 415 82 83 168 192 224 286 47 80-4 47-147-94"/><path d="M5218 7862c-19-20-73-86-119-147-179-234-246-282-669-480-186-86-202-97-179-120 14-14 23-14 85-1 88 19 257 78 351 122 245 117 437 313 549 562 44 97 37 122-18 64m565-99c-145-349-215-448-461-655-329-276-469-458-551-713-68-212-69-478-1-762 11-47 27-94 35-106 14-20 15-20 21-2 4 11 0 89-10 174-21 190-22 419-2 523 45 234 174 470 368 669 40 41 146 142 235 223 215 196 295 304 355 476 17 50 48 178 48 201s-22 6-37-28m1326-244c-6-12-40-109-74-215-74-228-134-353-219-460-76-96-268-311-441-494-157-166-225-249-299-362-116-178-209-414-266-671-31-137-36-187-21-187 5 0 41 98 81 218 169 504 248 626 696 1085 283 288 344 358 416 478 86 142 145 338 155 510 6 109-4 143-28 98m326-30c-16-20-64-81-105-137s-78-102-81-102c-4 0-4 31-1 69 5 77-4 149-18 135-5-5-21-52-35-104-15-52-40-140-56-194-37-129-37-131 3-110 50 26 152 128 208 210 62 90 123 215 118 245-3 21-5 21-33-12"/><path d="M7379 7167c-68-78-270-293-450-477-367-378-419-434-532-575-256-319-419-659-497-1040-22-105-25-145-12-145 12 0 22 23 109 254 100 267 156 391 238 528 144 240 280 410 575 719 284 298 451 495 608 716 95 135 105 150 94 157-6 3-65-58-133-137m-994-529c-237-240-343-376-453-578-117-216-250-622-217-666 6-9 14-13 17-8s36 86 73 179c165 420 263 579 664 1079 107 134 126 166 99 166-7 0-90-77-183-172m-232 47c-54-46-177-199-249-310-73-112-189-340-237-465-55-145-100-297-93-315 17-44 45-1 201 310 156 310 286 544 387 692 73 109 68 155-9 88m-294-97c-41-44-110-138-161-220-97-156-228-461-228-531 0-39 24-77 39-62 12 12 395 780 405 813 6 18 4 22-13 22-11 0-30-10-42-22m-264-162c-97-100-245-362-245-431 0-21 27-30 44-15 20 16 253 429 261 463 10 40-11 34-60-17m-435-643c0-21 7-99 15-173 35-323 29-474-24-665-11-38-18-71-16-73 6-7 45 56 64 105 68 174 69 453 0 744-22 96-39 123-39 62m-1725-127c-71-168-80-621-19-895 71-320 271-797 375-897l28-27-11 39c-5 21-43 120-83 219-196 484-260 805-258 1300 1 149-3 277-7 285-7 12-13 6-25-24"/><path d="M3565 5480c-4-6-11-56-17-111-20-209 23-514 111-779 75-225 209-509 236-500 15 5 9 27-61 235-113 340-147 492-199 910-15 116-30 220-35 233-10 23-25 29-35 12m144-222c-29-54 17-350 93-586 48-153 125-358 146-389 20-32 32-29 32 7 0 46-210 934-230 970-14 26-26 25-41-2m1093-140c-12-30-101-204-196-389-96-184-178-347-181-362-13-50 22-27 102 68 118 139 220 327 287 528 38 114 44 162 23 191-11 16-15 12-35-36m-189-50c-32-36-293-522-293-546 0-12 4-22 9-22 24 0 212 263 270 378 41 82 64 157 57 187-8 31-17 31-43 3m-686-65c-19-34-13-78 33-260 63-249 87-309 105-253 7 22-58 388-81 452-20 58-44 83-57 61m1013-1587c0-2 18-93 39-202 56-280 70-408 81-734 18-502 21-551 34-547 23 7 34 78 51 332 33 488 6 737-117 1058-27 70-48 97-77 97-6 0-11-2-11-4m-149-190c-9-10-4-74 19-262 30-246 44-440 56-765 6-169 13-204 35-182 14 14 25 132 38 418 11 235 3 384-29 545-41 215-80 294-119 246m-171-348c0-209 33-520 67-631l16-52 9 35c4 19 5 148 2 285-6 254-19 356-58 450-27 64-36 42-36-87m-221-31c-10-23-7-50 26-185 43-182 62-235 75-212 15 28-49 383-75 409-12 12-16 11-26-12"/></g></svg>